# WaveFront *.obj file (generated by CINEMA 4D)

v 0 0 0
v 10 0 0
v 9.23879528045654 0 -3.82683444023132
v 7.07106781005859 0 -7.07106781005859
v 3.82683444023132 0 -9.23879528045654
v 0 0 -10
v -3.82683444023132 0 -9.23879528045654
v -7.07106781005859 0 -7.07106781005859
v -9.23879528045654 0 -3.82683444023132
v -10 0 0
v -9.23879528045654 0 3.82683444023132
v -7.07106781005859 0 7.07106781005859
v -3.82683444023132 0 9.23879528045654
v 0 0 10
v 3.82683444023132 0 9.23879528045654
v 7.07106781005859 0 7.07106781005859
v 9.23879528045654 0 3.82683444023132
# 17 vertices

vn 0 1 0
vn 0 0 0
vn 0 1 0
vn 0 1 0
# 4 normals

vt 1 0.5 0
vt 0.5 0.5 0
vt 0.96193969249725 0.69134175777435 0
vt 0 1 0
vt 0.85355341434479 0.85355341434479 0
vt 0.69134163856506 0.9619397521019 0
vt 0.5 1 0
vt 0.30865824222565 0.9619397521019 0
vt 0.14644661545753 0.85355341434479 0
vt 0.03806023299694 0.69134175777435 0
vt 0 0.5 0
vt 0.03806023299694 0.30865836143494 0
vt 0.14644661545753 0.14644658565521 0
vt 0.30865824222565 0.03806030750275 0
vt 0.5 0 0
vt 0.69134163856506 0.03806030750275 0
vt 0.85355341434479 0.14644658565521 0
vt 0.96193969249725 0.30865836143494 0
# 18 texture coordinates

o Disc
usemtl default
f 3/3/1 1/2/1 2/1/1
f 4/5/1 1/2/1 3/3/1
f 5/6/1 1/2/1 4/5/1
f 6/7/1 1/2/1 5/6/1
f 7/8/1 1/2/1 6/7/1
f 8/9/1 1/2/1 7/8/1
f 9/10/1 1/2/1 8/9/1
f 10/11/1 1/2/1 9/10/1
f 11/12/1 1/2/1 10/11/1
f 12/13/3 1/2/1 11/12/1
f 13/14/3 1/2/1 12/13/3
f 14/15/1 1/2/1 13/14/3
f 15/16/1 1/2/1 14/15/1
f 16/17/4 1/2/1 15/16/1
f 17/18/4 1/2/1 16/17/4
f 2/1/1 1/2/1 17/18/4

